#!OML:ASF F:\VICON\USERDATA\INSTALL\rory3\rory3.ASF
:FULLY-SPECIFIED
:DEGREES
239
root -1.71934 17.502 2.13887 172.282 -25.3921 -179.999
lowerback 22.8706 -2.97612 0.185671
upperback 1.14459 -3.89371 3.17593
thorax -11.3208 -1.88885 4.72722
lowerneck -8.84169 -7.50261 -4.3436
upperneck 8.48471 -9.5218 -0.80034
head 4.60147 -4.90136 -0.165554
rclavicle 3.39922e-014 -5.48646e-014
rhumerus 22.7842 2.59352 -67.0839
rradius 106.073
rwrist 11.8018
rhand -7.33737 0.16661
rfingers 7.12502
rthumb 18.5463 -28.9693
lclavicle 3.39922e-014 -5.48646e-014
lhumerus 29.6845 -30.0347 90.6085
lradius 80.9895
lwrist 51.2936
lhand -11.2406 75.5029
lfingers 7.12502
lthumb 14.7888 -464.955
rfemur -19.8524 2.207 16.4209
rtibia 57.719
rfoot -18.5359 -6.73407
rtoes -4.40077
lfemur -16.1017 -0.317155 -27.1746
ltibia 39.2316
lfoot -11.4902 -2.10655
ltoes 4.91505
240
root -1.72908 17.5006 2.07188 172.372 -25.8103 -180.39
lowerback 22.4047 -2.96088 -0.324616
upperback 1.28029 -4.01924 3.10108
thorax -10.8729 -1.9382 4.92451
lowerneck -8.62336 -7.64901 -4.4754
upperneck 7.91403 -9.7176 -0.650696
head 4.37004 -4.98583 -0.0809358
rclavicle -1.42131e-014 1.35174e-014
rhumerus 23.6634 2.95729 -66.4043
rradius 105.068
rwrist 14.3038
rhand -9.99582 1.65441
rfingers 7.12502
rthumb 15.9877 -27.7058
lclavicle -1.42131e-014 1.35174e-014
lhumerus 31.4507 -30.8939 89.1536
lradius 81.253
lwrist 51.4393
lhand -11.7059 76.9737
lfingers 7.12502
lthumb 14.3404 -466.458
rfemur -19.7676 2.69418 15.8313
rtibia 56.3458
rfoot -18.9823 -5.67673
rtoes -3.18288
lfemur -15.8044 -0.191148 -27.5121
ltibia 39.3446
lfoot -11.8217 -2.43621
ltoes 5.02244
241
root -1.73738 17.507 2.01785 172.401 -26.2835 -180.461
lowerback 22.9598 -3.23613 -0.109954
upperback 0.630725 -4.27914 2.76474
thorax -11.9414 -2.01144 4.59268
lowerneck -7.65268 -7.69982 -4.24872
upperneck 7.80838 -9.8706 -0.65882
head 4.12547 -5.05942 -0.0837277
rclavicle -4.94974e-014 3.26007e-014
rhumerus 23.1398 3.77133 -66.4258
rradius 104.714
rwrist 15.2684
rhand -10.9944 1.51264
rfingers 7.12502
rthumb 15.0259 -27.9221
lclavicle -4.94974e-014 3.26007e-014
lhumerus 31.005 -31.7046 88.6592
lradius 80.9083
lwrist 50.4639
lhand -13.3558 74.5844
lfingers 7.12502
lthumb 12.7502 -464.175
rfemur -19.7166 3.28147 15.6048
rtibia 54.9703
rfoot -19.2059 -4.97152
rtoes -2.82764
lfemur -15.675 -0.193937 -27.5441
ltibia 39.4542
lfoot -12.0592 -2.75008
ltoes 4.94182
242
root -1.73755 17.5062 1.9605 172.193 -26.5961 -180.058
lowerback 23.1272 -3.36288 0.216915
upperback 0.321998 -4.33162 2.73521
thorax -12.4131 -2.02805 4.42502
lowerneck -7.15925 -7.78071 -4.25295
upperneck 7.68697 -10.0148 -0.555339
head 3.99361 -5.12695 -0.0322438
rclavicle 9.45221e-014 1.59028e-015
rhumerus 23.0521 4.26426 -66.1918
rradius 104.175
rwrist 15.9155
rhand -12.0964 1.76459
rfingers 7.12502
rthumb 13.9641 -27.7464
lclavicle 9.45221e-014 1.59028e-015
lhumerus 31.1244 -32.4585 88.2256
lradius 80.5046
lwrist 49.4573
lhand -13.8655 73.6189
lfingers 7.12502
lthumb 12.2588 -463.24
rfemur -19.6249 4.04197 15.9698
rtibia 53.6532
rfoot -19.1756 -4.6389
rtoes -2.57021
lfemur -15.5399 -0.100972 -27.0545
ltibia 39.6038
lfoot -12.2836 -3.1932
ltoes 4.66796
243
root -1.7309 17.5021 1.89167 171.813 -26.9011 -179.67
lowerback 23.1063 -3.39556 0.307847
upperback 0.344732 -4.34896 2.78923
thorax -12.3764 -2.04277 4.437
lowerneck -7.2714 -7.86847 -4.31071
upperneck 7.61389 -10.1265 -0.411962
head 4.00478 -5.17381 0.0135146
rclavicle -2.23633e-015 5.56597e-014
rhumerus 23.4781 4.44523 -65.8736
rradius 103.394
rwrist 16.6157
rhand -13.4639 2.41442
rfingers 7.12502
rthumb 12.646 -27.1828
lclavicle -2.23633e-015 5.56597e-014
lhumerus 31.8567 -32.9322 87.7328
lradius 80.0348
lwrist 49.1498
lhand -14.0265 73.2743
lfingers 7.12502
lthumb 12.1035 -462.904
rfemur -19.3067 4.82589 16.403
rtibia 52.4387
rfoot -19.194 -4.53109
rtoes -2.9028
lfemur -15.2037 0.0227654 -26.5338
ltibia 39.7757
lfoot -12.6004 -3.66513
ltoes 4.28513
